<?xml version="1.0" standalone="no"?>
<!DOCTYPE svg PUBLIC "-//W3C//DTD SVG 20010904//EN"
 "http://www.w3.org/TR/2001/REC-SVG-20010904/DTD/svg10.dtd">
<svg version="1.0" xmlns="http://www.w3.org/2000/svg"
 width="700.000000pt" height="700.000000pt" viewBox="0 0 700.000000 700.000000"
 preserveAspectRatio="xMidYMid meet">
<metadata>
Created by potrace 1.11, written by Peter Selinger 2001-2013
</metadata>
<g transform="translate(0.000000,700.000000) scale(0.100000,-0.100000)"
fill="#000000" stroke="none">
<path d="M3420 6989 c-102 -29 -182 -97 -228 -197 l-26 -57 -2 -458 c-1 -252
-4 -460 -6 -462 -2 -1 -38 -6 -81 -9 -104 -8 -170 -15 -237 -26 -30 -5 -75
-12 -100 -15 -25 -4 -63 -10 -85 -15 -22 -5 -56 -12 -75 -15 -32 -6 -161 -37
-290 -70 -68 -17 -319 -103 -420 -143 -321 -128 -639 -320 -870 -527 -80 -72
-211 -209 -258 -270 -25 -33 -49 -62 -52 -65 -22 -17 -155 -236 -210 -345
-174 -341 -258 -710 -261 -1135 0 -131 10 -349 17 -361 2 -3 6 -34 10 -69 5
-51 29 -179 60 -320 40 -183 160 -500 262 -690 44 -84 142 -250 152 -260 3 -3
25 -34 49 -70 135 -200 392 -481 587 -642 438 -361 963 -606 1514 -709 58 -11
128 -22 155 -25 28 -3 55 -7 62 -9 78 -25 684 -26 808 -1 11 2 43 7 70 10 105
14 286 48 360 68 22 6 45 12 50 14 84 19 319 97 388 128 18 8 66 29 107 46
194 83 461 238 625 362 208 157 476 412 585 556 14 18 35 45 48 60 39 46 166
233 221 324 92 154 232 456 281 608 65 200 118 444 135 620 3 36 9 83 11 105
14 100 7 425 -12 580 -56 462 -225 872 -498 1210 -265 327 -627 591 -1066 778
-160 68 -429 158 -570 192 -8 2 -62 15 -120 29 -97 23 -190 41 -265 52 -16 2
-40 6 -52 9 -12 3 -44 7 -70 10 -27 3 -64 7 -83 10 -19 2 -71 7 -115 11 -44 3
-82 7 -86 9 -3 2 -5 202 -4 445 1 454 -4 520 -40 560 -8 9 -15 21 -15 26 0 19
-86 93 -136 118 -58 29 -167 41 -224 25z"/>
</g>
</svg>
